#!OML:ASF E:\emotionWalksFemale\Project 1\Capture day 1\Session 1\Female1.ASF
:FULLY-SPECIFIED
:DEGREES
191
root 9.00077 15.5186 23.3066 181.703 9.13647 -179.584
lowerback 9.92188 1.43853 0.544548
upperback -3.49209 2.05731 0.373769
thorax -9.29872 0.98471 -0.27546
lowerneck -6.43518 -2.40348 -8.77599
upperneck 1.01127 -2.71993 9.63399
head 1.60772 -1.1539 4.24122
rclavicle -7.15314e-015 2.98177e-016
rhumerus -38.2049 16.4289 -63.6835
rradius 49.2981
rwrist 15.1406
rhand -5.78148 -55.4582
rfingers 7.12502
rthumb 20.0424 -84.4445
lclavicle -7.15314e-015 2.98177e-016
lhumerus -34.138 0.451579 49.8722
lradius 30.2998
lwrist -21.4594
lhand 0.462984 -43.2573
lfingers 7.12502
lthumb 26.0338 -15.021
rfemur -3.67537 17.0678 24.0621
rtibia 17.7118
rfoot -14.0485 -23.6861
rtoes -8.15972
lfemur -6.20826 -15.4788 -22.6207
ltibia 22.4296
lfoot -20.9068 21.2952
ltoes -33.7045
192
root 8.99363 15.5175 23.2899 181.69 9.46394 -179.913
lowerback 9.69248 1.4555 0.252681
upperback -3.23822 2.01935 0.252494
thorax -8.89307 0.979253 -0.22247
lowerneck -6.79898 -2.39412 -8.57937
upperneck 1.04676 -2.69011 9.48257
head 1.66938 -1.13075 4.16078
rclavicle -2.26366e-014 -2.98177e-016
rhumerus -37.5684 16.8087 -62.191
rradius 48.8482
rwrist 14.9839
rhand -5.76306 -55.1874
rfingers 7.12502
rthumb 20.0601 -84.1718
lclavicle -2.26366e-014 -2.98177e-016
lhumerus -33.7854 0.316236 48.3676
lradius 30.5213
lwrist -20.7545
lhand 0.296933 -43.4262
lfingers 7.12502
lthumb 25.8748 -15.1666
rfemur -3.75855 16.909 23.614
rtibia 17.8835
rfoot -14.1578 -23.3523
rtoes -8.70202
lfemur -6.05994 -15.3607 -23.0751
ltibia 22.3459
lfoot -21.1938 21.4789
ltoes -33.1326
193
root 8.98966 15.521 23.2906 181.908 9.62351 -179.864
lowerback 9.73471 1.40083 0.229682
upperback -3.21333 1.9435 0.266548
thorax -8.89211 0.943856 -0.182285
lowerneck -6.83808 -2.31286 -8.48974
upperneck 0.885286 -2.57018 9.44474
head 1.61544 -1.06914 4.13937
rclavicle -2.67218e-014 -5.36719e-015
rhumerus -37.1632 17.3527 -60.6933
rradius 48.4718
rwrist 14.7219
rhand -5.74527 -54.9493
rfingers 7.12502
rthumb 20.0772 -83.9319
lclavicle -2.67218e-014 -5.36719e-015
lhumerus -33.692 0.082633 46.7757
lradius 30.8619
lwrist -19.9484
lhand 0.0989673 -43.5369
lfingers 7.12502
lthumb 25.6852 -15.2498
rfemur -4.11271 16.8163 23.5599
rtibia 18.0235
rfoot -14.1349 -23.1825
rtoes -8.88996
lfemur -6.3016 -15.1933 -22.9738
ltibia 22.3717
lfoot -21.088 21.5348
ltoes -33.6657
194
root 8.98711 15.5239 23.3064 182.227 9.63434 -179.528
lowerback 10.181 1.29872 0.516566
upperback -3.36435 1.85659 0.317865
thorax -9.31086 0.884835 -0.288107
lowerneck -6.81255 -2.24625 -8.46005
upperneck 0.748952 -2.47401 9.55258
head 1.56398 -1.01722 4.17196
rclavicle 1.10621e-014 -4.27387e-015
rhumerus -36.8503 17.7564 -59.1502
rradius 47.9465
rwrist 14.4839
rhand -5.33055 -54.6656
rfingers 7.12502
rthumb 20.4758 -83.6059
lclavicle 1.10621e-014 -4.27387e-015
lhumerus -33.6262 -0.112793 44.9647
lradius 31.1121
lwrist -19.3293
lhand -0.147177 -43.762
lfingers 7.12502
lthumb 25.4494 -15.4411
rfemur -4.57461 16.8385 23.8335
rtibia 18.0946
rfoot -14.0473 -23.1628
rtoes -8.96089
lfemur -6.80262 -14.9754 -22.4601
ltibia 22.506
lfoot -20.7798 21.3675
ltoes -34.5108
195
root 8.9844 15.5226 23.3124 182.395 9.72525 -179.383
lowerback 10.6618 1.1989 0.715052
upperback -3.47228 1.75106 0.255774
thorax -9.70434 0.816266 -0.460479
lowerneck -6.85116 -2.18526 -8.40173
upperneck 0.680851 -2.38697 9.70888
head 1.54437 -0.96626 4.21379
rclavicle -9.19651e-015 -7.15625e-015
rhumerus -36.4321 17.9432 -57.6044
rradius 47.2047
rwrist 14.6478
rhand -4.8884 -54.2867
rfingers 7.12502
rthumb 20.9006 -83.1807
lclavicle -9.19651e-015 -7.15625e-015
lhumerus -33.4449 0.219032 42.8363
lradius 31.127
lwrist -19.0201
lhand 0.260048 -44.071
lfingers 7.12502
lthumb 25.8394 -15.8063
rfemur -4.82939 16.815 23.9219
rtibia 18.0881
rfoot -13.9776 -23.0572
rtoes -9.29266
lfemur -7.1475 -14.7483 -22.23
ltibia 22.7386
lfoot -20.8011 21.2487
ltoes -34.5473
196
root 8.97989 15.5222 23.309 182.531 9.87375 -179.404
lowerback 10.5904 1.12737 0.66689
upperback -3.29038 1.64021 0.240589
thorax -9.46458 0.7657 -0.424339
lowerneck -7.06743 -2.10951 -8.46262
upperneck 0.432516 -2.24043 9.87311
head 1.49652 -0.879822 4.27957
rclavicle -1.66921e-014 -6.36111e-015
rhumerus -35.6388 18.221 -55.7994
rradius 46.6117
rwrist 14.8311
rhand -4.25597 -54.8585
rfingers 7.12502
rthumb 21.5081 -83.6843
lclavicle -1.66921e-014 -6.36111e-015
lhumerus -33.0835 0.964561 40.7893
lradius 31.2024
lwrist -18.6617
lhand 0.814991 -44.2512
lfingers 7.12502
lthumb 26.3708 -16.065
rfemur -5.05742 16.7142 23.8064
rtibia 18.1403
rfoot -13.9874 -22.8318
rtoes -9.07834
lfemur -7.37347 -14.6314 -22.2369
ltibia 22.9153
lfoot -20.9041 21.2975
ltoes -34.5173
197
root 8.97517 15.5236 23.3064 182.717 9.95371 -179.452
lowerback 10.9023 1.07266 0.528375
upperback -3.39066 1.55376 0.267809
thorax -9.76331 0.7311 -0.309401
lowerneck -7.15296 -2.01726 -8.48173
upperneck 0.490334 -2.11283 9.88087
head 1.51586 -0.814052 4.28964
rclavicle -1.24213e-014 -2.98177e-015
rhumerus -35.2556 18.5352 -53.7884
rradius 45.8494
rwrist 14.4985
rhand -4.1968 -54.0435
rfingers 7.12502
rthumb 21.565 -82.8628
lclavicle -1.24213e-014 -2.98177e-015
lhumerus -33.2452 0.664435 39.0292
lradius 31.7503
lwrist -17.7784
lhand 1.09943 -44.0806
lfingers 7.12502
lthumb 26.643 -15.9354
rfemur -5.38945 16.567 23.6481
rtibia 18.3184
rfoot -14.0641 -22.6191
rtoes -8.65871
lfemur -7.59686 -14.5776 -22.2576
ltibia 22.9367
lfoot -20.9192 21.2866
ltoes -34.4013
198
root 8.97257 15.5275 23.3047 182.876 10.0369 -179.511
lowerback 10.7429 1.0452 0.46297
upperback -3.21012 1.49769 0.229257
thorax -9.47229 0.707354 -0.297276
lowerneck -7.13562 -1.97655 -8.40268
upperneck 0.210575 -2.03955 9.86991
head 1.42308 -0.775661 4.27652
rclavicle -1.22462e-014 2.38542e-015
rhumerus -34.5802 18.2307 -51.6062
rradius 45.0803
rwrist 14.6216
rhand -3.76614 -53.8972
rfingers 7.12502
rthumb 21.9785 -82.6686
lclavicle -1.22462e-014 2.38542e-015
lhumerus -33.0816 0.462219 37.2511
lradius 32.3501
lwrist -16.7378
lhand 1.63569 -43.6739
lfingers 7.12502
lthumb 27.1561 -15.6078
rfemur -5.70805 16.4522 23.5027
rtibia 18.5362
rfoot -14.1496 -22.4315
rtoes -8.6145
lfemur -7.76337 -14.4626 -22.2826
ltibia 22.9084
lfoot -21.1311 21.1096
ltoes -33.5916
199
root 8.97118 15.5316 23.3024 183.03 10.1521 -179.576
lowerback 10.8439 1.04856 0.342746
upperback -3.17371 1.4815 0.204302
thorax -9.49407 0.704999 -0.254779
lowerneck -7.01178 -1.96625 -8.32029
upperneck -0.0958645 -2.014 9.83616
head 1.30926 -0.765031 4.25449
rclavicle -9.51992e-016 -5.41688e-015
rhumerus -34.1889 17.9033 -49.3854
rradius 44.373
rwrist 14.9671
rhand -3.42546 -53.9825
rfingers 7.12502
rthumb 22.3056 -82.715
lclavicle -9.51992e-016 -5.41688e-015
lhumerus -32.902 0.493723 35.3429
lradius 32.8393
lwrist -15.6011
lhand 3.00343 -42.9116
lfingers 7.12502
lthumb 28.4638 -15.0569
rfemur -6.02196 16.3686 23.3544
rtibia 18.7414
rfoot -14.2627 -22.2526
rtoes -8.75261
lfemur -7.94054 -14.3217 -22.314
ltibia 22.9258
lfoot -21.1656 21.0528
ltoes -33.8932
